<svg xmlns="http://www.w3.org/2000/svg" viewBox="0 0 181.19 176.82"><defs><style>.a,.b,.c,.d,.e,.f,.g,.h{stroke:#000;stroke-width:4px;}.a,.b,.g{stroke-linejoin:round;}.b{fill:#9349ff;}.c,.g{fill:none;}.c,.d,.e,.f,.h{stroke-miterlimit:10;}.d{fill:#00b07d;}.e{fill:#fff03b;}.f{fill:#fff;}.h{fill:#faf100;}</style></defs><title>Cake</title><polygon class="a" points="79.36 118.37 103.61 95.93 103.61 87.74 155.96 87.74 155.96 82.07 79.36 82.07 79.36 118.37"/><path class="b" d="M1812,464.79L1867.91,498c13.91-8.54,20.8-19.53,20.68-30.53h0V419.05h0c0.09,8.47-4,17.28-12.2,24.63-2.46,2.19-8.5,6.22-8.5,6.22l-47.63-26.77-7.25-4.07h0" transform="translate(-1709.4 -331.32)"/><path class="c" d="M1788.38,413.38h0l-55.53-31c-14.43,8.62-21.57,19.8-21.45,31h77Z" transform="translate(-1709.4 -331.32)"/><path class="c" d="M1759.86,372a93.69,93.69,0,0,0-26.07,9.86l-0.92.55,55.53,31Z" transform="translate(-1709.4 -331.32)"/><rect class="c" x="78.98" y="82.07"/><path class="c" d="M1788.39,413.38h77c-0.12-11.33-7.7-22.66-22.71-31.33s-34.64-13-54.27-13.11v0a128,128,0,0,0-28.53,3.06l28.53,41.39h0Z" transform="translate(-1709.4 -331.32)"/><path class="d" d="M1843.91,444.36l-0.92.55c-30,17.3-78.71,17.21-108.87-.2l-0.92-.54-0.13.07V492.4l1,0.62c30.16,17.41,78.9,17.5,108.87.2l1.45-.86v-47.7Z" transform="translate(-1709.4 -331.32)"/><path class="c" d="M1733.08,444.09v0.15l0.13-.07Z" transform="translate(-1709.4 -331.32)"/><line class="c" x1="134.51" y1="113.05" x2="134.51" y2="113.12"/><path class="e" d="M1723.75,437.3c-8.13-7.27-12.25-15.59-12.34-23.92h0v48.31h0c0.12,11.06,7.35,22.12,21.67,30.71V444.09A61.21,61.21,0,0,1,1723.75,437.3Z" transform="translate(-1709.4 -331.32)"/><path class="f" d="M1795.72,417.47l-7.33-4.09h0l-7.23,4-47.95,26.75,0.92,0.54c30.16,17.41,78.9,17.5,108.87.2l0.92-.55Z" transform="translate(-1709.4 -331.32)"/><polyline class="g" points="179.19 87.74 103.61 87.74 103.61 95.93"/><line class="g" x1="158.25" y1="118.37" x2="158.25" y2="166.71"/><path class="f" d="M1825.59,350.94v0c0-2-2.77-3.6-6.19-3.6s-6.18,1.61-6.18,3.6v41.41c0,2,2.77,3.6,6.18,3.6s6.19-1.61,6.19-3.6V350.94Z" transform="translate(-1709.4 -331.32)"/><ellipse class="h" cx="110.29" cy="9.93" rx="3.38" ry="7.93"/></svg>