<?xml version="1.0" encoding="utf-8"?>
<!-- Generator: Adobe Illustrator 19.2.1, SVG Export Plug-In . SVG Version: 6.00 Build 0)  -->
<svg version="1.1" id="Layer_1" xmlns="http://www.w3.org/2000/svg" xmlns:xlink="http://www.w3.org/1999/xlink" x="0px" y="0px"
	 viewBox="0 0 1154 301.4" style="enable-background:new 0 0 1154 301.4;" xml:space="preserve">
<style type="text/css">
	.st0{fill:none;stroke:#000000;stroke-width:4;stroke-linejoin:round;}
	.st1{fill:#FFFFFF;stroke:#000000;stroke-width:4;stroke-linejoin:round;}
</style>
<path class="st0" d="M515.6,75.3c2.9-1.8,7.7-4.6,7.7-4.6s22.7,13.9,33.1,17.8c-11.1,11.8-14.5,14.3-24.2,19.9l-42.9,24.8l27.6,17.8
	c4.5-5.3,11.4-11.1,20.5-16.4c14.4-8.3,33.8-15,54.4-14.8c21.2,0,41.6,6.2,56.7,14.9c59.3,34.2,6,84.1-48.2,115.4
	c-5.2,3-10.4,5.8-15.5,8.4l-36.3-21c2-1.2,4.3-2.3,6.3-3.5c38.8-22.4,81.1-51.2,44.5-72.3c-15.5-9-31-5.9-43.9,1.5
	c-9.8,5.7-18.2,13.8-24.1,21.1l-46.9,4.1l-76.2-49.5C408.2,138.8,500.8,84.3,515.6,75.3z"/>
<path class="st1" d="M515.6,16.8c2.9-1.8,7.7-4.6,7.7-4.6S546,26.1,556.4,30c-11.1,11.8-14.5,14.3-24.2,19.9l-42.9,24.8l27.6,17.8
	c4.5-5.3,11.4-11.1,20.5-16.4c14.4-8.3,33.8-15,54.4-14.8c21.2,0,41.6,6.2,56.7,14.9c59.3,34.2,6,84.1-48.2,115.4
	c-5.2,3-10.4,5.8-15.5,8.4l-36.3-21c2-1.2,4.3-2.3,6.3-3.5c38.8-22.4,81.1-51.2,44.5-72.3c-15.5-9-31-5.9-43.9,1.5
	c-9.8,5.7-18.2,13.8-24.1,21.1l-46.9,4.1l-76.2-49.5C408.2,80.3,500.8,25.9,515.6,16.8z"/>
<line class="st0" x1="408.2" y1="80.3" x2="408.2" y2="138.8"/>
<line class="st0" x1="484.5" y1="129.9" x2="484.5" y2="188.3"/>
<line class="st0" x1="531.7" y1="126.3" x2="531.7" y2="184.8"/>
<line class="st0" x1="548.5" y1="179.1" x2="548.5" y2="237.6"/>
<line class="st0" x1="585" y1="200" x2="585" y2="258.4"/>
<line class="st0" x1="674.4" y1="109.6" x2="674.4" y2="168"/>
<line class="st0" x1="662.2" y1="303.6" x2="548.5" y2="238.1"/>
<path class="st1" d="M14,313.4c0,0,353.6-208.1,410.5-242.7"/>
</svg>
