<svg id="Layer_1" data-name="Layer 1" xmlns="http://www.w3.org/2000/svg" viewBox="0 0 1284 281.49"><defs><style>.cls-1,.cls-5{fill:none;}.cls-1,.cls-2,.cls-3,.cls-4,.cls-5,.cls-6,.cls-7,.cls-8,.cls-9{stroke:#000;stroke-width:2px;}.cls-1,.cls-2,.cls-3,.cls-4{stroke-linejoin:round;}.cls-2,.cls-8{fill:#fff;}.cls-4{fill:#9249ff;}.cls-5,.cls-6,.cls-7,.cls-8,.cls-9{stroke-miterlimit:10;}.cls-6{fill:#20ffbe;}.cls-7{fill:#ffef3b;}.cls-9{fill:#f9f000;}</style></defs><title>Hero_birthday</title><path class="cls-1" d="M1148.18,887.08c1.66-1,4.36-2.6,4.36-2.6s12.87,7.86,18.76,10.09c-6.29,6.68-8.26,8.1-13.75,11.27l-24.33,14L1148.89,930a44.59,44.59,0,0,1,11.62-9.28,61.86,61.86,0,0,1,30.85-8.39,66.36,66.36,0,0,1,32.18,8.46c33.63,19.42,3.38,47.73-27.34,65.47-3,1.7-5.89,3.31-8.76,4.78l-20.61-11.9c1.15-.66,2.46-1.32,3.6-2,22-12.72,46-29,25.25-41-8.82-5.09-17.61-3.35-24.9.86a51.51,51.51,0,0,0-13.66,12l-26.61,2.32-43.3-28.12S1139.74,892.21,1148.18,887.08Z" transform="translate(-461 -710.51)"/><path class="cls-2" d="M1148.18,853.91c1.66-1,4.36-2.6,4.36-2.6s12.87,7.86,18.76,10.09c-6.29,6.68-8.26,8.1-13.75,11.27l-24.33,14,15.67,10.09a44.59,44.59,0,0,1,11.62-9.28,61.86,61.86,0,0,1,30.85-8.39,66.37,66.37,0,0,1,32.18,8.46c33.63,19.42,3.38,47.73-27.34,65.47-3,1.7-5.89,3.31-8.76,4.78l-20.61-11.9c1.15-.66,2.46-1.32,3.6-2,22-12.72,46-29,25.25-41-8.82-5.09-17.61-3.35-24.9.86a51.51,51.51,0,0,0-13.66,12l-26.61,2.32-43.3-28.12S1139.74,859,1148.18,853.91Z" transform="translate(-461 -710.51)"/><line class="cls-2" x1="626.22" y1="179.44" x2="626.22" y2="212.61"/><line class="cls-2" x1="669.51" y1="207.55" x2="669.51" y2="240.73"/><line class="cls-2" x1="696.27" y1="205.53" x2="696.27" y2="238.7"/><line class="cls-2" x1="705.8" y1="235.51" x2="705.8" y2="268.69"/><line class="cls-2" x1="726.53" y1="247.32" x2="726.53" y2="280.49"/><line class="cls-2" x1="777.29" y1="196.02" x2="777.29" y2="229.2"/><path class="cls-1" d="M1152.54,851.67L1287,769a154.46,154.46,0,0,1,80.87-22.86H1745" transform="translate(-461 -710.51)"/><polygon class="cls-3" points="560.35 109.6 579.64 91.74 579.65 85.22 621.31 85.22 621.31 80.71 560.35 80.71 560.35 109.6"/><path class="cls-4" d="M1039.83,832.12l44.51,26.45c11.07-6.79,16.55-15.55,16.46-24.3h0V795.73h0c0.07,6.74-3.16,13.75-9.71,19.6-2,1.75-6.76,5-6.76,5L1046.41,799l-5.77-3.24h0" transform="translate(-461 -710.51)"/><path class="cls-5" d="M1021,791.21h0l-44.19-24.66c-11.48,6.86-17.17,15.75-17.07,24.66H1021Z" transform="translate(-461 -710.51)"/><path class="cls-5" d="M998.34,758.28a74.56,74.56,0,0,0-20.75,7.85l-0.73.43L1021,791.21Z" transform="translate(-461 -710.51)"/><circle class="cls-5" cx="560.05" cy="80.71"/><path class="cls-5" d="M1021,791.21h61.26c-0.1-9-6.12-18-18.08-24.93s-27.57-10.38-43.19-10.44v0a101.83,101.83,0,0,0-22.7,2.43l22.7,32.94h0Z" transform="translate(-461 -710.51)"/><path class="cls-6" d="M1065.24,815.87l-0.73.43c-23.85,13.77-62.64,13.7-86.64-.16l-0.73-.43-0.1.06V854.1l0.83,0.49c24,13.86,62.79,13.93,86.64.16l1.15-.69v-38Z" transform="translate(-461 -710.51)"/><path class="cls-5" d="M977,815.65v0.12l0.1-.06Z" transform="translate(-461 -710.51)"/><line class="cls-5" x1="604.24" y1="105.36" x2="604.24" y2="105.42"/><path class="cls-7" d="M969.61,810.25c-6.47-5.79-9.75-12.41-9.82-19h0v38.44h0c0.09,8.8,5.85,17.61,17.25,24.44V815.65A48.65,48.65,0,0,1,969.61,810.25Z" transform="translate(-461 -710.51)"/><path class="cls-8" d="M1026.88,794.47l-5.84-3.26h0l-5.75,3.21-38.16,21.29,0.73,0.43c24,13.86,62.79,13.93,86.64.16l0.73-.43Z" transform="translate(-461 -710.51)"/><polyline class="cls-1" points="639.8 85.22 579.64 85.22 579.64 91.74"/><line class="cls-1" x1="623.13" y1="109.6" x2="623.13" y2="148.07"/><path class="cls-8" d="M1050.66,741.52v0c0-1.58-2.2-2.87-4.92-2.87s-4.92,1.28-4.92,2.87v33c0,1.58,2.2,2.87,4.92,2.87s4.92-1.29,4.92-2.87V741.52Z" transform="translate(-461 -710.51)"/><ellipse class="cls-9" cx="584.96" cy="23.3" rx="2.69" ry="6.31"/><path class="cls-1" d="M978,767.28l-54.43-31c-23.89-13.62-65.94-24.76-93.44-24.76H461" transform="translate(-461 -710.51)"/><line class="cls-1" x1="626.65" y1="213.3" x2="520.18" y2="145.97"/></svg>