<svg xmlns="http://www.w3.org/2000/svg" viewBox="0 0 100 100"><defs><style>.a{fill:#0097e2;}</style></defs><title>new</title><path class="a" d="M35.7,2.1A17,17,0,0,0,45.9,9.5,1.4,1.4,0,0,1,47,10.9c0,4,0,17.2,0,21.2a1.4,1.4,0,0,1-1.1,1.4,16.9,16.9,0,0,0-4.1,1.6,1.4,1.4,0,0,1-1.8-.3l-13.4-16a1.4,1.4,0,0,1,0-1.8A17,17,0,0,0,30.2,4.1a50.2,50.2,0,0,0-22,18.4,17,17,0,0,0,12.7-1,1.4,1.4,0,0,1,1.7.4L36.3,38.1a1.4,1.4,0,0,1,.1,1.8,17,17,0,0,0-2.1,3.8,1.4,1.4,0,0,1-1.6.8L12,40.9a1.4,1.4,0,0,1-1.2-1.3,17,17,0,0,0-5.5-12A49.8,49.8,0,0,0,0,50a50.4,50.4,0,0,0,.3,5.8,17,17,0,0,0,9.2-9.2,1.4,1.4,0,0,1,1.6-.8L33,49.6c0,0.1,0,.2,0,0.4a16.9,16.9,0,0,0,.8,5,1.4,1.4,0,0,1-.7,1.6L14.8,67.2a1.4,1.4,0,0,1-1.7-.2A17,17,0,0,0,1.4,61.5,49.9,49.9,0,0,0,15.7,86.3a17,17,0,0,0,1-13.2,1.4,1.4,0,0,1,.7-1.7L35.5,61a1.4,1.4,0,0,1,1.8.3,17,17,0,0,0,8.7,5.2A1.4,1.4,0,0,1,47,67.9V89.5A1.5,1.5,0,0,1,45.5,91H21.4A51.7,51.7,0,0,0,50,100a51.7,51.7,0,0,0,28.6-9H54a1.5,1.5,0,0,1-1.5-1.5V68a1.4,1.4,0,0,1,1.1-1.4,17,17,0,0,0,9-5.2,1.4,1.4,0,0,1,1.8-.3L82.5,71.7a1.4,1.4,0,0,1,.7,1.7,17,17,0,0,0,1.1,13A49.9,49.9,0,0,0,98.6,61.5a17,17,0,0,0-11.9,5.6,1.4,1.4,0,0,1-1.8.3L66.8,56.9a1.4,1.4,0,0,1-.7-1.7A16.9,16.9,0,0,0,67,50c0-.2,0-0.3,0-0.4l21.9-3.9a1.4,1.4,0,0,1,1.6.8,17,17,0,0,0,9.2,9.3A50.4,50.4,0,0,0,100,50a49.8,49.8,0,0,0-5.3-22.4,17,17,0,0,0-5.5,11.9A1.4,1.4,0,0,1,88,40.8L67.3,44.4a1.4,1.4,0,0,1-1.6-.9,17,17,0,0,0-2.3-4,1.4,1.4,0,0,1,0-1.8L77,21.7a1.4,1.4,0,0,1,1.7-.4,17,17,0,0,0,13,1.2,50.2,50.2,0,0,0-22-18.4,17,17,0,0,0,3.4,12.7,1.4,1.4,0,0,1-.1,1.8L59.7,34.6a1.4,1.4,0,0,1-1.8.4,16.9,16.9,0,0,0-4.3-1.6A1.4,1.4,0,0,1,52.5,32c0-4,0-17,0-21a1.4,1.4,0,0,1,1.1-1.4A17,17,0,0,0,64.3,2.1,53.4,53.4,0,0,0,50,0,53.4,53.4,0,0,0,35.7,2.1Z" transform="translate(0)"/></svg>