<svg xmlns="http://www.w3.org/2000/svg" viewBox="0 0 245.61 226.21"><defs><style>.a{fill:none;}.a,.b,.c,.d{stroke:#000;stroke-linecap:round;stroke-linejoin:round;stroke-width:4px;}.b{fill:#fff03b;}.c{fill:#9349ff;}.d{fill:#20ffbf;}</style></defs><title>prizes</title><polygon class="a" points="126.28 71.23 57.26 32.81 57.22 86.69 126.28 124.44 126.28 71.23"/><polygon class="b" points="181.5 95.13 243.61 59.68 174.59 21.17 160.37 29.21 181.5 41.21 181.5 95.13"/><polygon class="a" points="181.5 95.13 181.5 41.21 126.28 71.23 126.28 124.44 71.07 155.8 71.07 224.06 71.07 155.8 2 117.42 2 185.7 71.02 224.21 243.57 127.94 243.61 59.68 181.5 95.13"/><polygon class="c" points="126.28 124.44 57.22 86.69 2 117.42 71.07 155.8 126.28 124.44"/><polygon class="d" points="181.5 41.21 160.37 29.21 160.37 29.21 112.48 2 57.26 32.81 126.28 71.23 181.5 41.21"/><path d="M1520.14,3452.65l4,0.8v37.15l-10.1,5.83V3466.1l-7.48,7.19-2.51-5.11Z" transform="translate(-1362 -3385)"/><path d="M1451.63,3554.23a51.57,51.57,0,0,1,5.54-5.07,49.77,49.77,0,0,1,6-4.1,26.62,26.62,0,0,1,4.19-2,8.15,8.15,0,0,1,3.38-.59,3,3,0,0,1,2.24,1.22,5.76,5.76,0,0,1,.81,3.4,13.08,13.08,0,0,1-.59,4,14.74,14.74,0,0,1-1.76,3.58,27.63,27.63,0,0,1-2.91,3.61q-1.74,1.86-4,4.14l-2.29,2.31q-1,1-1.61,1.71a14,14,0,0,0-1.05,1.34,5.33,5.33,0,0,0-.92,2.41c-0.05.43-.09,0.93-0.11,1.5l14.85-8.57v5.27l-22.12,12.77v-3.76a17.2,17.2,0,0,1,.67-4.91,18.9,18.9,0,0,1,1.95-4.4A29.42,29.42,0,0,1,1457,3564q1.81-2.07,4.08-4.28l2.28-2.24a17.15,17.15,0,0,0,1.72-1.92,8.07,8.07,0,0,0,1.08-1.9,5.93,5.93,0,0,0,.38-2.18,2.33,2.33,0,0,0-.32-1.38,1.2,1.2,0,0,0-.89-0.49,3,3,0,0,0-1.32.24,11.38,11.38,0,0,0-1.62.79q-0.89.52-2,1.29t-2.22,1.7q-1.14.93-2.28,2t-2.18,2.18Z" transform="translate(-1362 -3385)"/><path d="M1571.37,3484.7a15.19,15.19,0,0,0,1.55-.39,14.39,14.39,0,0,0,1.52-.58q0.83-.36,1.93-1t2.81-1.59l7.9-4.56v3.56l-5.47,9.3a13.87,13.87,0,0,1,3.28-1.33,4,4,0,0,1,2.73.12,3.5,3.5,0,0,1,1.87,1.93,8,8,0,0,1,.6,3.2,13,13,0,0,1-.75,4.34,20.47,20.47,0,0,1-2.06,4.2,28.29,28.29,0,0,1-3.09,4,50.54,50.54,0,0,1-3.87,3.77q-1.57,1.37-3,2.47t-2.79,2q-1.35.92-2.63,1.71l-2.51,1.52v-4.67q1.83-1.17,3.6-2.43t3.37-2.62q1.57-1.35,2.93-2.74a25.22,25.22,0,0,0,2.36-2.77,13.76,13.76,0,0,0,1.56-2.71,6.71,6.71,0,0,0,.57-2.61,3.65,3.65,0,0,0-.32-1.71,1.42,1.42,0,0,0-.9-0.75,2.53,2.53,0,0,0-1.36.08,8.14,8.14,0,0,0-1.71.77,17.69,17.69,0,0,0-1.94,1.32q-1,.78-2.06,1.73l-1.73-2.44,5.94-10.24-2.89,1.67q-0.79.45-1.71,0.94t-1.87.91a17.92,17.92,0,0,1-1.87.71,6.82,6.82,0,0,1-1.71.33Z" transform="translate(-1362 -3385)"/></svg>