<?xml version="1.0" encoding="UTF-8"?>
<svg width="34px" height="34px" viewBox="0 0 34 34" version="1.1" xmlns="http://www.w3.org/2000/svg" xmlns:xlink="http://www.w3.org/1999/xlink">
    <!-- Generator: Sketch 42 (36781) - http://www.bohemiancoding.com/sketch -->
    <title>Shape</title>
    <desc>Created with Sketch.</desc>
    <defs></defs>
    <g id="Page-1" stroke="none" stroke-width="1" fill="none" fill-rule="evenodd">
        <g id="footer-logo" fill-rule="nonzero" fill="#FFFFFF">
            <g id="Layer_2">
                <g id="Layer_4">
                    <path d="M12.44,0.62 C12.3595067,0.640493944 12.294448,0.699627849 12.2663845,0.777804701 C12.238321,0.855981553 12.2509177,0.942991728 12.3,1.01 C13.0990355,2.1163937 14.264964,2.90312961 15.59,3.23 C15.8038318,3.28519712 15.9524084,3.47917213 15.95,3.7 L15.95,10.92 C15.9503585,11.1413246 15.7962573,11.3329099 15.58,11.38 C15.0911931,11.5010193 14.6204717,11.6859456 14.18,11.93 C13.9794182,12.0414684 13.7279941,11.995374 13.58,11.82 L9,6.39 C8.85418845,6.21280725 8.85418845,5.95719275 9,5.78 C9.91129139,4.65381912 10.3647512,3.22559939 10.27,1.78 C10.2652056,1.69630946 10.2187856,1.62059212 10.146377,1.57835374 C10.0739683,1.53611536 9.98520975,1.53297857 9.91,1.57 C7.12879615,2.84021036 4.74164145,4.836991 3,7.35 C2.9559398,7.42091097 2.94861061,7.50866624 2.9802977,7.58590351 C3.01198478,7.66314078 3.0788334,7.72046412 3.16,7.74 C4.50286999,8.07900599 5.92292862,7.92279954 7.16,7.3 C7.3601364,7.20401956 7.59997812,7.25777719 7.74,7.43 L12.36,12.93 C12.5004002,13.1053597 12.5004002,13.3546403 12.36,13.53 C12.0662752,13.9241376 11.8243021,14.3543121 11.64,14.81 C11.5539514,15.0196676 11.3329758,15.1405787 11.11,15.1 L4.11,13.86 C3.88747151,13.8226613 3.72099162,13.6353715 3.71,13.41 C3.65522233,11.9755476 3.06679189,10.613242 2.06,9.59 C2.00258998,9.52928625 1.918643,9.50126863 1.83627607,9.51533127 C1.75390914,9.52939392 1.68401356,9.58367735 1.65,9.66 C0.555165776,11.9515027 -0.00882338978,14.4603999 0,17 C0,17.54 0.0266666667,18.08 0.08,18.62 C0.0847944338,18.7036905 0.131214368,18.7794079 0.203623016,18.8216463 C0.276031664,18.8638846 0.36479025,18.8670214 0.44,18.83 C1.70998293,18.207658 2.70661724,17.1398355 3.24,15.83 C3.32951682,15.6242712 3.54960624,15.5079975 3.77,15.55 L11.2,16.86 L11.2,16.98 C11.1995602,17.549299 11.2838157,18.1154962 11.45,18.66 C11.5172722,18.8751684 11.4257406,19.1081581 11.23,19.22 L5,22.79 C4.80855411,22.9032634 4.56437234,22.870154 4.41,22.71 C3.46549472,21.6966177 2.18740903,21.0575748 0.81,20.91 C0.728037555,20.9020523 0.647155447,20.9334019 0.591959466,20.9945118 C0.536763486,21.0556216 0.51377963,21.1392664 0.53,21.22 C1.3130035,24.1757292 2.88187075,26.8642285 5.07,29 C5.11676031,29.0669914 5.19330313,29.1069091 5.275,29.1069091 C5.35669687,29.1069091 5.43323969,29.0669914 5.48,29 C6.06835411,27.6810151 6.13973604,26.1891328 5.68,24.82 C5.61272777,24.6048316 5.70425944,24.3718419 5.9,24.26 L12,20.69 C12.1960081,20.5737739 12.4467187,20.6113805 12.6,20.78 C13.3733617,21.6569698 14.3953051,22.2778091 15.53,22.56 C15.745744,22.6144819 15.8976905,22.8074951 15.9,23.03 L15.9,30.37 C15.9,30.6461424 15.6761424,30.87 15.4,30.87 L8,30.87 C7.90523318,30.8727408 7.8228808,30.9358834 7.79563837,31.0266915 C7.76839594,31.1174996 7.80239146,31.2155466 7.88,31.27 C10.6210177,32.9706945 13.7744805,33.8904545 17,33.93 C20.2211641,33.8916465 23.3708624,32.9754335 26.11,31.28 C26.1876085,31.2255466 26.2216041,31.1274996 26.1943616,31.0366915 C26.1671192,30.9458834 26.0847668,30.8827408 25.99,30.88 L18.31,30.88 C18.0338576,30.88 17.81,30.6561424 17.81,30.38 L17.81,23.08 C17.8039629,22.8525232 17.9584802,22.6520684 18.18,22.6 C19.3364781,22.3398411 20.3842895,21.7286177 21.18,20.85 C21.3358625,20.6846955 21.5862713,20.6513077 21.78,20.77 L28,24.32 C28.1995567,24.428692 28.2955536,24.6624235 28.23,24.88 C27.7972059,26.2272916 27.8755187,27.6867574 28.45,28.98 C28.4840136,29.0563226 28.5539091,29.1106061 28.6362761,29.1246687 C28.718643,29.1387314 28.80259,29.1107137 28.86,29.05 C31.0522399,26.8991876 32.6181403,24.192565 33.39,21.22 C33.4142778,21.1391196 33.396084,21.0514491 33.3416275,20.9869081 C33.287171,20.922367 33.2038125,20.8896792 33.12,20.9 C31.7093973,21.0470372 30.4026276,21.7093238 29.45,22.76 C29.2967187,22.9286195 29.0460081,22.9662261 28.85,22.85 L22.68,19.29 C22.4804433,19.181308 22.3844464,18.9475765 22.45,18.73 C22.6313348,18.1710648 22.7257685,17.5875993 22.73,17 L22.73,16.85 L30.15,15.54 C30.3729758,15.4994213 30.5939514,15.6203324 30.68,15.83 C31.2158337,17.1415568 32.2162539,18.2096211 33.49,18.83 C33.5652097,18.8670214 33.6539683,18.8638846 33.726377,18.8216463 C33.7987856,18.7794079 33.8452056,18.7036905 33.85,18.62 C33.9033333,18.08 33.93,17.54 33.93,17 C33.9328226,14.4738952 33.3689818,11.9793271 32.28,9.7 C32.2414701,9.62501024 32.168971,9.57335827 32.0855093,9.56143517 C32.0020476,9.54951207 31.9179858,9.5787982 31.86,9.64 C30.8769242,10.6592532 30.3037658,12.0049295 30.25,13.42 C30.2390084,13.6453715 30.0725285,13.8326613 29.85,13.87 L22.85,15.11 C22.6270242,15.1505787 22.4060486,15.0296676 22.32,14.82 C22.1224984,14.3366736 21.8600867,13.8824994 21.54,13.47 C21.3995998,13.2946403 21.3995998,13.0453597 21.54,12.87 L26.13,7.4 C26.2740162,7.22629781 26.519574,7.17635385 26.72,7.28 C27.9734999,7.93940594 29.4260111,8.11384969 30.8,7.77 C30.8804933,7.74950606 30.945552,7.69037215 30.9736155,7.6121953 C31.001679,7.53401845 30.9890823,7.44700827 30.94,7.38 C29.1996164,4.83705549 26.8007743,2.81497675 24,1.53 C23.9247903,1.49297857 23.8360317,1.49611536 23.763623,1.53835374 C23.6912144,1.58059212 23.6447944,1.65630946 23.64,1.74 C23.5378986,3.15506892 23.9616387,4.55804039 24.83,5.68 C24.9704002,5.85535974 24.9704002,6.10464026 24.83,6.28 L20.25,11.74 C20.1059838,11.9137022 19.860426,11.9636462 19.66,11.86 C19.1996948,11.6177724 18.7085008,11.4394623 18.2,11.33 C17.9782175,11.2827589 17.8197486,11.0867579 17.82,10.86 L17.82,3.73 C17.8187077,3.50624288 17.9721932,3.3112748 18.19,3.26 C19.5758755,2.95605138 20.8008123,2.15129638 21.63,1 C21.6838364,0.934135225 21.7004862,0.845414649 21.6741929,0.764512301 C21.6478997,0.683609953 21.582272,0.621629534 21.5,0.6 C20.0306983,0.21409764 18.5190822,0.0125488302 17,0 C15.459982,0.01417537 13.9278973,0.222485123 12.44,0.62 L12.44,0.62 Z" id="Shape"></path>
                </g>
            </g>
        </g>
    </g>
</svg>